<svg viewBox="0 0 400 300" xmlns="http://www.w3.org/2000/svg">
  <defs>
    <linearGradient id="ai-grad" x1="0%" y1="0%" x2="100%" y2="100%">
      <stop offset="0%" style="stop-color:#8b5cf6" />
      <stop offset="100%" style="stop-color:#ec4899" />
    </linearGradient>
  </defs>
  <rect width="400" height="300" fill="url(#ai-grad)"/>
  
  <!-- AI Brain Icon -->
  <g transform="translate(160, 80)" fill="white" opacity="0.9">
    <path d="M15 4c-4.42 0-8 3.58-8 8 0 1.57 0.46 3.03 1.24 4.26L6.7 17.7c-0.39 0.39-0.39 1.02 0 1.41 0.39 0.39 1.02 0.39 1.41 0L9.55 17.66c1.23 0.78 2.69 1.24 4.26 1.24s3.03-0.46 4.26-1.24l1.44 1.45c0.39 0.39 1.02 0.39 1.41 0 0.39-0.39 0.39-1.02 0-1.41l-1.44-1.44c0.78-1.23 1.24-2.69 1.24-4.26 0-4.42-3.58-8-8-8zm0 2c3.31 0 6 2.69 6 6s-2.69 6-6 6-6-2.69-6-6 2.69-6 6-6z"/>
    <circle cx="12" cy="10" r="1"/>
    <circle cx="18" cy="10" r="1"/>
    <path d="M12 14c1.1 0 2-0.9 2-2h-4c0 1.1 0.9 2 2 2z"/>
  </g>
  
  <!-- Network nodes -->
  <g fill="rgba(255,255,255,0.6)">
    <circle cx="100" cy="120" r="3"/>
    <circle cx="300" cy="150" r="3"/>
    <circle cx="120" cy="200" r="3"/>
    <circle cx="280" cy="100" r="3"/>
    <line x1="100" y1="120" x2="200" y2="140" stroke="rgba(255,255,255,0.4)" stroke-width="1"/>
    <line x1="300" y1="150" x2="200" y2="140" stroke="rgba(255,255,255,0.4)" stroke-width="1"/>
    <line x1="120" y1="200" x2="200" y2="140" stroke="rgba(255,255,255,0.4)" stroke-width="1"/>
    <line x1="280" y1="100" x2="200" y2="140" stroke="rgba(255,255,255,0.4)" stroke-width="1"/>
  </g>
  
  <!-- AI Dashboard text -->
  <text x="200" y="230" text-anchor="middle" fill="white" font-family="Arial, sans-serif" font-size="24" font-weight="bold">
    AI Analytics Dashboard
  </text>
  <text x="200" y="255" text-anchor="middle" fill="rgba(255,255,255,0.8)" font-family="Arial, sans-serif" font-size="14">
    Intelligent data insights
  </text>
</svg>
