<svg viewBox="0 0 400 300" xmlns="http://www.w3.org/2000/svg">
  <defs>
    <linearGradient id="ecommerce-grad" x1="0%" y1="0%" x2="100%" y2="100%">
      <stop offset="0%" style="stop-color:#0ea5e9" />
      <stop offset="100%" style="stop-color:#3b82f6" />
    </linearGradient>
  </defs>
  <rect width="400" height="300" fill="url(#ecommerce-grad)"/>
  
  <!-- Shopping Cart Icon -->
  <g transform="translate(150, 100)" fill="white" opacity="0.9">
    <path d="M7 18c-1.1 0-2 0.9-2 2s0.9 2 2 2 2-0.9 2-2-0.9-2-2-2zM1 2v2h2l3.6 7.59-1.35 2.45c-0.16 0.28-0.25 0.61-0.25 0.96 0 1.1 0.9 2 2 2h12v-2H7.42c-0.14 0-0.25-0.11-0.25-0.25l0.03-0.12L8.1 13h7.45c0.75 0 1.41-0.41 1.75-1.03L21.7 4H5.21l-0.94-2H1z"/>
    <circle cx="17" cy="18" r="2"/>
  </g>
  
  <!-- E-commerce text -->
  <text x="200" y="200" text-anchor="middle" fill="white" font-family="Arial, sans-serif" font-size="24" font-weight="bold">
    E-commerce Platform
  </text>
  <text x="200" y="230" text-anchor="middle" fill="rgba(255,255,255,0.8)" font-family="Arial, sans-serif" font-size="14">
    Modern online shopping solution
  </text>
</svg>
